# xmcd
#
# Track frame offsets: 
#        150
#        19562
#        39392
#        52360
#        72952
#        89382
#        106545
#        127137
#        145092
#        166707
#        185340
#        204622
#        223582
#        244092
#        260895
#        289230
#        309945
#        325190
#
# Disc length: 4555 seconds
#
# Revision: 15
# Processed by: cddbd v1.5.2PL0 Copyright (c) Steve Scherf et al.
# Submitted via: ExactAudioCopy v1.0b3
#
DISCID=0911c912
DTITLE=Alanis Morissette - The Collection
DYEAR=2005
DGENRE=Rock
TTITLE0=Thank You
TTITLE1=Head Over Feet
TTITLE2=8 Easy Steps
TTITLE3=Everything
TTITLE4=Crazy
TTITLE5=Ironic
TTITLE6=Princes Familiar (MTV Unplugged)
TTITLE7=You Learn
TTITLE8=Simple Together
TTITLE9=You Oughta Know
TTITLE10=That I Would Be Good
TTITLE11=Sister Blister
TTITLE12=Hands Clean
TTITLE13=Mercy (From The Prayer Cycle)
TTITLE14=Still (From The Dogma Soundtrack)
TTITLE15=Uninvited (From The City Of Angels Soundtrack)
TTITLE16=Let's Do It (Let's Fall In Love) (From The De-Lovely Soundtra
TTITLE16=ck)
TTITLE17=Hand In My Pocket
EXTD=YEAR: 2005
EXTT0=
EXTT1=
EXTT2=
EXTT3=
EXTT4=
EXTT5=
EXTT6=
EXTT7=
EXTT8=
EXTT9=
EXTT10=
EXTT11=
EXTT12=
EXTT13=
EXTT14=
EXTT15=
EXTT16=
EXTT17=
PLAYORDER=
